<svg width="1201" height="314" viewBox="0 0 1201 314" fill="none" xmlns="http://www.w3.org/2000/svg">
<path d="M221.217 306.709C222.872 306.859 224.528 306.107 225.431 304.677C227.162 302.193 227.463 298.882 226.033 296.173C225.28 294.442 223.625 293.389 221.743 293.389C218.508 293.313 215.272 293.238 212.111 293.238C210.305 293.238 208.574 293.389 206.693 293.464C206.241 297.753 206.316 302.118 206.843 306.483C211.885 306.559 216.551 306.784 221.217 306.709ZM208.197 274.951C206.843 274.951 206.09 275.628 206.015 276.832V283.154C205.94 283.756 206.166 284.282 206.542 284.734C206.918 285.11 207.445 285.336 208.047 285.336C208.649 285.336 209.326 285.411 210.004 285.336C214.218 285.562 218.432 285.486 222.647 285.11C224.076 284.96 225.28 283.981 225.657 282.552C226.109 280.971 225.958 279.24 225.28 277.66C224.905 275.778 223.098 274.574 221.142 274.876H215.046C215.046 274.876 210.455 274.876 208.197 274.951ZM229.646 289.475C231 291.808 232.355 293.915 233.408 296.098C234.236 297.979 234.462 300.086 234.01 302.043C233.634 304.376 232.806 306.559 231.602 308.59C229.495 312.73 225.205 313.03 221.142 313.03C217.83 313.105 214.444 313.03 211.057 313.03C208.8 312.955 206.617 312.805 204.36 312.805C203.005 312.805 201.725 312.88 200.371 312.955C199.242 313.03 198.941 312.73 198.865 311.601C198.865 310.697 198.941 309.719 198.941 308.816V280.068C198.941 277.284 198.865 274.574 198.865 271.79C198.865 270.661 198.865 269.532 199.919 268.78C200.446 268.328 201.048 268.178 201.725 268.253C206.768 268.253 211.735 268.178 216.701 268.178H221.292C226.861 268.328 230.097 272.016 231.903 276.832C232.129 277.359 232.204 277.811 232.129 278.337C232.204 282.1 231.376 285.788 229.721 289.174C229.721 289.25 229.646 289.325 229.646 289.475Z" fill="#004100"/>
<path d="M269.233 283.53C269.157 284.057 269.308 284.584 269.684 284.885C270.061 285.261 270.512 285.411 271.039 285.411C275.178 285.487 279.392 285.487 283.531 285.487C284.66 285.487 285.714 284.809 286.241 283.831C287.068 282.176 287.295 280.294 286.918 278.488C286.692 277.284 285.714 276.381 284.51 276.305C279.769 276.23 275.027 276.23 270.286 276.23C269.985 276.305 269.684 276.381 269.383 276.531C269.308 278.94 269.233 281.273 269.233 283.53ZM294.82 312.73C293.315 312.73 291.734 312.579 290.229 312.73C288.799 312.805 287.445 311.977 286.918 310.697C284.359 305.655 281.8 300.613 279.091 295.646C278.414 294.066 276.758 293.163 275.027 293.389C273.598 293.539 272.092 293.539 270.587 293.539C270.211 293.539 269.835 293.84 269.835 294.292C269.308 300.162 269.157 306.107 269.383 311.977C269.383 312.353 269.157 312.655 268.857 312.73C268.706 312.805 268.63 312.805 268.555 312.805C268.48 312.88 268.405 312.88 268.33 312.88C266.524 312.955 264.642 313.03 262.761 313.106C262.686 313.106 262.535 312.955 262.159 312.805C262.084 312.203 262.008 311.601 262.008 310.999V270.36C262.008 268.554 262.234 268.328 263.965 268.328C269.308 268.253 274.651 268.253 279.994 268.253H284.359C289.778 268.404 293.164 272.016 294.97 276.682C295.196 277.058 295.272 277.434 295.272 277.811C295.196 280.595 294.895 283.455 294.218 286.239C293.315 288.948 291.358 291.131 288.875 292.41C286.993 293.389 286.768 293.69 287.746 295.571C289.251 298.656 290.982 301.667 292.637 304.677C293.917 307.085 295.272 309.569 296.626 311.977C296.701 312.052 296.626 312.278 296.626 312.73H294.82Z" fill="#004100"/>
<path d="M345.847 291.131C344.793 288.572 343.815 285.938 342.762 283.38C342.31 282.326 341.858 281.348 341.331 280.369C341.106 279.918 340.805 279.767 340.429 279.767C340.127 279.767 339.751 279.993 339.45 280.52C339.375 280.746 339.3 280.971 339.224 281.122C338.396 283.154 337.493 285.186 336.665 287.217C336.063 288.723 335.537 290.152 334.934 291.658C334.859 291.808 334.934 291.959 335.085 291.959C336.741 292.26 338.396 292.335 340.052 292.335C342.009 292.335 343.966 292.185 345.922 291.808C346.148 291.808 345.997 291.432 345.847 291.131ZM342.009 268.328C342.686 268.253 343.363 268.705 343.589 269.307C344.868 272.016 346.073 274.65 347.201 277.359C347.954 279.015 348.556 280.67 349.233 282.251C349.459 282.928 349.835 283.605 350.137 284.282C351.717 288.046 353.297 291.883 354.878 295.646C355.705 297.678 356.458 299.635 357.361 301.591C358.189 303.548 359.167 305.355 360.07 307.311C360.522 308.515 360.973 309.795 361.274 311.074C361.425 311.45 361.349 311.826 361.124 312.128C360.898 312.504 360.522 312.654 360.145 312.654C358.716 312.805 357.286 312.955 355.781 312.955C355.404 312.88 354.953 312.73 354.652 312.428C354.351 312.203 354.2 311.902 354.05 311.526C352.921 308.816 351.868 306.107 350.814 303.322C350.663 302.946 350.513 302.495 350.362 302.118C350.137 300.764 348.857 299.936 347.578 300.237C344.643 300.463 341.783 300.538 338.848 300.538C336.741 300.387 334.634 300.387 332.526 300.237C331.849 300.162 331.172 300.538 330.946 301.215C329.516 304.376 328.237 307.763 327.033 310.999C326.28 312.805 325.979 313.03 323.947 312.805C323.195 312.73 322.442 312.73 321.765 312.73C319.582 312.579 319.206 312.203 319.884 310.171C320.184 308.816 320.786 307.537 321.464 306.333C322.216 304.978 322.893 303.624 323.345 302.118C325.528 297.152 327.71 292.185 329.667 287.067C330.796 284.207 332.075 281.423 333.354 278.563C334.558 275.778 335.687 272.919 336.816 270.059C337.569 268.855 338.472 268.253 340.202 268.328H342.009Z" fill="#004100"/>
<path d="M404.023 275.929H387.09C386.488 275.853 385.886 275.778 385.359 275.703C384.908 275.628 384.607 275.327 384.532 274.875C384.306 272.919 384.381 270.887 384.833 268.855C384.983 268.478 385.359 268.178 385.811 268.178C388.972 268.253 392.057 268.328 395.218 268.328C398.605 268.328 401.991 268.102 405.302 268.102C408.539 267.876 411.774 268.027 415.01 268.554C415.462 268.629 415.763 269.005 415.838 269.457C415.838 272.392 415.01 275.327 413.43 277.886C410.345 281.723 407.711 285.938 404.926 289.927C401.841 294.291 398.68 298.581 395.594 302.946C395.519 303.096 395.444 303.247 395.294 303.397C394.992 303.999 395.369 304.752 396.046 304.827C396.573 304.903 397.1 304.903 397.551 304.827C403.421 304.903 409.291 304.903 415.086 304.978H415.161C415.537 305.053 415.838 305.053 416.214 305.128C416.666 305.203 417.043 305.58 417.043 306.107V311.6C417.043 312.127 416.591 312.579 416.064 312.579H412.527C403.873 312.579 395.143 312.729 386.488 312.88C385.209 312.88 384.306 312.278 384.231 311.224C384.155 309.343 384.155 307.461 384.155 305.58C384.231 305.128 384.381 304.752 384.682 304.451C386.488 302.72 387.994 300.763 389.348 298.656V298.581C390.853 296.85 392.283 294.969 393.638 293.087C396.798 288.722 399.884 284.358 403.045 279.917C403.572 279.165 404.173 278.337 404.851 277.434C405.302 276.832 404.851 275.929 404.023 275.929Z" fill="#004100"/>
<path d="M449.181 269.682V269.757C449.031 283.83 448.88 297.903 448.655 312.127C448.655 312.428 448.504 312.654 448.203 312.654C446.472 312.879 444.666 312.879 442.86 312.729C442.558 312.729 442.258 312.654 442.032 312.428C441.881 312.202 441.731 311.901 441.806 311.6C441.731 308.89 441.731 306.182 441.731 303.472C441.731 301.215 441.806 298.957 441.806 296.624V269.757C441.806 268.027 442.032 267.876 443.687 268.102C444.741 268.177 445.87 268.177 446.999 268.177C447.526 268.252 447.977 268.252 448.579 268.328C448.805 268.328 448.955 268.478 449.031 268.704C449.106 269.005 449.181 269.381 449.181 269.682Z" fill="#004100"/>
<path d="M512.849 312.353C512.849 312.579 512.699 312.729 512.548 312.729C511.645 312.729 511.043 312.805 510.441 312.805C500.582 312.805 490.799 312.88 481.016 312.88C480.64 312.88 480.263 312.88 479.887 312.805C479.586 312.88 479.21 312.729 478.984 312.503C478.758 312.278 478.607 311.901 478.607 311.601V303.247V279.692C478.607 276.38 478.607 272.994 478.683 269.607C478.683 268.178 478.984 267.952 480.338 268.027C481.467 268.178 482.671 268.178 483.8 268.253L485.606 268.328C485.832 268.328 485.908 268.478 485.983 268.629C486.284 274.8 485.531 280.746 485.682 286.69C485.832 292.561 485.456 298.431 485.832 304.526C485.832 304.677 485.983 304.828 486.208 304.828C487.036 304.903 487.714 304.978 488.391 304.978C495.766 305.053 503.216 305.128 510.592 305.204C512.548 305.279 512.849 305.58 512.849 307.537C512.925 309.042 512.849 310.547 512.849 312.353Z" fill="#004100"/>
<path d="M543.104 269.682V269.757C542.954 283.83 542.803 297.903 542.578 312.127C542.578 312.428 542.427 312.654 542.126 312.654C540.395 312.879 538.589 312.879 536.783 312.729C536.481 312.729 536.181 312.654 535.955 312.428C535.804 312.202 535.654 311.901 535.729 311.6C535.654 308.89 535.654 306.182 535.654 303.472C535.654 301.215 535.729 298.957 535.729 296.624V269.757C535.729 268.027 535.955 267.876 537.61 268.102C538.664 268.177 539.793 268.177 540.922 268.177C541.449 268.252 541.9 268.252 542.502 268.328C542.728 268.328 542.878 268.478 542.954 268.704C543.029 269.005 543.104 269.381 543.104 269.682Z" fill="#004100"/>
<path d="M592.325 291.131C591.271 288.572 590.293 285.938 589.24 283.38C588.788 282.326 588.336 281.348 587.809 280.369C587.584 279.918 587.283 279.767 586.907 279.767C586.605 279.767 586.229 279.993 585.928 280.52C585.853 280.746 585.778 280.971 585.702 281.122C584.874 283.154 583.971 285.186 583.143 287.217C582.541 288.723 582.015 290.152 581.412 291.658C581.337 291.808 581.412 291.959 581.563 291.959C583.219 292.26 584.874 292.335 586.53 292.335C588.487 292.335 590.444 292.185 592.4 291.808C592.626 291.808 592.475 291.432 592.325 291.131ZM588.487 268.328C589.164 268.253 589.841 268.705 590.067 269.307C591.346 272.016 592.551 274.65 593.679 277.359C594.432 279.015 595.034 280.67 595.711 282.251C595.937 282.928 596.313 283.605 596.615 284.282C598.195 288.046 599.775 291.883 601.356 295.646C602.183 297.678 602.936 299.635 603.839 301.591C604.667 303.548 605.645 305.355 606.548 307.311C607 308.515 607.451 309.795 607.752 311.074C607.903 311.45 607.827 311.826 607.602 312.128C607.376 312.504 607 312.654 606.623 312.654C605.194 312.805 603.764 312.955 602.259 312.955C601.882 312.88 601.431 312.73 601.13 312.428C600.829 312.203 600.678 311.902 600.528 311.526C599.399 308.816 598.346 306.107 597.292 303.322C597.141 302.946 596.991 302.495 596.84 302.118C596.615 300.764 595.335 299.936 594.056 300.237C591.121 300.463 588.261 300.538 585.326 300.538C583.219 300.387 581.112 300.387 579.004 300.237C578.327 300.162 577.65 300.538 577.424 301.215C575.994 304.376 574.715 307.763 573.511 310.999C572.758 312.805 572.457 313.03 570.425 312.805C569.673 312.73 568.92 312.73 568.243 312.73C566.06 312.579 565.684 312.203 566.362 310.171C566.662 308.816 567.264 307.537 567.942 306.333C568.694 304.978 569.371 303.624 569.823 302.118C572.006 297.152 574.188 292.185 576.145 287.067C577.274 284.207 578.553 281.423 579.832 278.563C581.036 275.778 582.165 272.919 583.294 270.059C584.047 268.855 584.95 268.253 586.68 268.328H588.487Z" fill="#004100"/>
<path d="M663.821 312.88H658.478C657.349 312.73 656.37 312.052 655.919 310.999C650.35 301.667 644.631 292.335 638.911 283.078V283.003C638.685 282.777 638.46 282.627 638.158 282.401V312.203C638.158 312.353 638.008 312.504 637.858 312.579C636.051 312.88 634.17 312.955 632.288 312.805C631.988 312.805 631.686 312.654 631.385 312.428C631.16 312.203 631.084 311.826 631.084 311.526V303.172V279.692V269.758C631.084 268.103 631.385 267.952 633.116 268.103C634.17 268.253 635.299 268.253 636.352 268.253C637.707 268.178 638.986 268.93 639.513 270.134C642.072 274.349 644.781 278.563 647.34 282.777C650.199 287.443 653.059 292.034 655.919 296.625C656.145 297.001 656.37 297.302 656.672 297.754C656.897 297.979 657.349 297.904 657.424 297.527C657.499 297.151 657.499 296.775 657.499 296.474V269.608C657.499 268.178 657.8 267.952 659.23 268.103C660.736 268.178 662.316 268.253 663.896 268.328C664.047 268.328 664.197 268.479 664.272 268.705C664.649 272.919 664.724 308.064 664.272 312.504C664.272 312.73 664.047 312.88 663.821 312.88Z" fill="#004100"/>
<path d="M752.402 276.155V287.97C752.402 292.034 752.628 296.098 752.402 300.087C752.101 303.925 752.703 308.064 752.252 312.128C752.252 312.428 751.95 312.655 751.65 312.655H750.069C748.94 312.73 747.736 312.73 746.607 312.88C745.328 312.955 745.027 312.73 745.027 311.45C744.952 309.042 745.027 306.559 745.027 304.151V278.94C745.027 276.08 745.403 275.628 741.942 275.628H730.277C728.32 275.553 728.094 275.327 728.17 273.446C728.17 272.241 728.17 271.414 728.245 270.285C728.245 268.629 728.621 268.178 730.277 268.178C733.513 268.103 740.361 268.103 743.522 268.028H764.293C767.528 268.028 767.98 268.178 767.905 271.339C767.905 272.392 767.905 273.07 767.83 274.048C767.754 275.176 767.453 275.478 766.4 275.553C765.195 275.628 763.691 275.628 762.486 275.628H753.004C752.703 275.628 752.402 275.854 752.402 276.155Z" fill="#004100"/>
<path d="M809.072 291.131C808.018 288.572 807.04 285.938 805.987 283.38C805.535 282.326 805.083 281.348 804.556 280.369C804.331 279.918 804.03 279.767 803.654 279.767C803.352 279.767 802.976 279.993 802.675 280.52C802.6 280.746 802.525 280.971 802.449 281.122C801.621 283.154 800.718 285.186 799.89 287.217C799.288 288.723 798.762 290.152 798.159 291.658C798.084 291.808 798.159 291.959 798.31 291.959C799.966 292.26 801.621 292.335 803.277 292.335C805.234 292.335 807.191 292.185 809.147 291.808C809.373 291.808 809.222 291.432 809.072 291.131ZM805.234 268.328C805.911 268.253 806.588 268.705 806.814 269.307C808.093 272.016 809.298 274.65 810.426 277.359C811.179 279.015 811.781 280.67 812.458 282.251C812.684 282.928 813.06 283.605 813.362 284.282C814.942 288.046 816.522 291.883 818.103 295.646C818.93 297.678 819.683 299.635 820.586 301.591C821.414 303.548 822.392 305.355 823.295 307.311C823.747 308.515 824.198 309.795 824.499 311.074C824.65 311.45 824.574 311.826 824.349 312.128C824.123 312.504 823.747 312.654 823.37 312.654C821.941 312.805 820.511 312.955 819.006 312.955C818.629 312.88 818.178 312.73 817.877 312.428C817.576 312.203 817.425 311.902 817.275 311.526C816.146 308.816 815.093 306.107 814.039 303.322C813.888 302.946 813.738 302.495 813.587 302.118C813.362 300.764 812.082 299.936 810.803 300.237C807.868 300.463 805.008 300.538 802.073 300.538C799.966 300.387 797.859 300.387 795.751 300.237C795.074 300.162 794.397 300.538 794.171 301.215C792.741 304.376 791.462 307.763 790.258 310.999C789.505 312.805 789.204 313.03 787.172 312.805C786.42 312.73 785.667 312.73 784.99 312.73C782.807 312.579 782.431 312.203 783.109 310.171C783.409 308.816 784.011 307.537 784.689 306.333C785.441 304.978 786.118 303.624 786.57 302.118C788.753 297.152 790.935 292.185 792.892 287.067C794.021 284.207 795.3 281.423 796.579 278.563C797.783 275.778 798.912 272.919 800.041 270.059C800.794 268.855 801.697 268.253 803.427 268.328H805.234Z" fill="#004100"/>
<path d="M869.054 306.709C870.709 306.859 872.365 306.107 873.268 304.677C874.999 302.193 875.3 298.882 873.87 296.173C873.117 294.442 871.462 293.389 869.581 293.389C866.345 293.313 863.109 293.238 859.948 293.238C858.141 293.238 856.411 293.389 854.529 293.464C854.078 297.753 854.153 302.118 854.68 306.483C859.722 306.559 864.388 306.784 869.054 306.709ZM856.034 274.951C854.68 274.951 853.927 275.628 853.852 276.832V283.154C853.777 283.756 854.003 284.282 854.379 284.734C854.755 285.11 855.282 285.336 855.884 285.336C856.486 285.336 857.163 285.411 857.841 285.336C862.055 285.562 866.269 285.486 870.484 285.11C871.913 284.96 873.117 283.981 873.494 282.552C873.946 280.971 873.795 279.24 873.117 277.66C872.742 275.778 870.935 274.574 868.978 274.876H862.883C862.883 274.876 858.292 274.876 856.034 274.951ZM877.483 289.475C878.837 291.808 880.192 293.915 881.245 296.098C882.073 297.979 882.299 300.086 881.847 302.043C881.471 304.376 880.643 306.559 879.439 308.59C877.332 312.73 873.042 313.03 868.978 313.03C865.667 313.105 862.281 313.03 858.894 313.03C856.637 312.955 854.454 312.805 852.197 312.805C850.842 312.805 849.562 312.88 848.208 312.955C847.079 313.03 846.778 312.73 846.703 311.601C846.703 310.697 846.778 309.719 846.778 308.816V280.068C846.778 277.284 846.703 274.574 846.703 271.79C846.703 270.661 846.703 269.532 847.756 268.78C848.283 268.328 848.885 268.178 849.562 268.253C854.605 268.253 859.572 268.178 864.538 268.178H869.129C874.698 268.328 877.934 272.016 879.74 276.832C879.966 277.359 880.041 277.811 879.966 278.337C880.041 282.1 879.214 285.788 877.558 289.174C877.558 289.25 877.483 289.325 877.483 289.475Z" fill="#004100"/>
<path d="M944.087 312.353C944.087 312.579 943.937 312.729 943.786 312.729C942.883 312.729 942.281 312.805 941.679 312.805C931.82 312.805 922.037 312.88 912.254 312.88C911.878 312.88 911.501 312.88 911.125 312.805C910.824 312.88 910.448 312.729 910.222 312.503C909.996 312.278 909.845 311.901 909.845 311.601V303.247V279.692C909.845 276.38 909.845 272.994 909.921 269.607C909.921 268.178 910.222 267.952 911.576 268.027C912.705 268.178 913.909 268.178 915.038 268.253L916.844 268.328C917.07 268.328 917.146 268.478 917.221 268.629C917.522 274.8 916.769 280.746 916.92 286.69C917.07 292.561 916.694 298.431 917.07 304.526C917.07 304.677 917.221 304.828 917.446 304.828C918.274 304.903 918.952 304.978 919.629 304.978C927.004 305.053 934.454 305.128 941.83 305.204C943.786 305.279 944.087 305.58 944.087 307.537C944.163 309.042 944.087 310.547 944.087 312.353Z" fill="#004100"/>
<path d="M1000.61 268.178C1000.98 268.178 1001.28 268.479 1001.28 268.855V273.972C1001.21 275.252 1000.83 275.553 999.478 275.628H998.801C991.351 275.703 983.9 275.779 976.45 275.929C975.998 275.929 975.622 275.929 975.17 276.005C974.869 276.005 974.568 276.305 974.568 276.607C974.192 279.391 974.042 282.251 974.117 285.035C974.192 285.336 974.342 285.562 974.644 285.637C974.719 285.713 974.869 285.788 975.02 285.788H975.17C979.31 285.863 983.449 285.938 987.587 285.938H988.265C989.92 286.089 990.222 286.315 990.297 287.895C990.372 289.175 990.297 290.529 990.297 291.808C990.297 292.11 990.297 292.41 990.222 292.787C990.222 293.088 989.92 293.389 989.62 293.389C989.168 293.464 988.716 293.539 988.265 293.539C984.352 293.615 980.363 293.615 976.45 293.615H975.02C974.644 293.615 974.342 293.915 974.267 294.217C974.267 294.593 974.192 294.894 974.192 295.27V295.345C974.192 297.979 974.117 300.614 974.192 303.172C974.192 304.752 974.493 304.978 975.998 304.978C979.535 305.053 983.148 305.053 986.685 305.129C990.899 305.129 995.038 305.204 999.177 305.279C1000.83 305.279 1001.21 305.58 1001.28 307.16V311.977C1001.28 312.73 1000.01 312.805 999.478 312.805H999.403C989.243 312.88 979.084 312.88 968.924 312.88C967.269 312.88 967.043 312.73 967.043 310.924V270.661C967.043 268.028 967.043 268.028 969.601 268.028C979.31 268.028 989.018 268.103 998.801 268.103C999.328 268.103 999.855 268.103 1000.61 268.178Z" fill="#004100"/>
<path d="M153.376 0.153885V169.229H266.042V131.642H190.925V89.3479H237.766V66.1479H190.927V37.8629H265.874V0.153885H153.376Z" fill="#004100"/>
<path d="M435.194 0.153885V37.8849H463.409V131.673H435.194V169.229H529.195V131.673H501.016V37.8849H529.195V0.153885H435.194Z" fill="#004100"/>
<path d="M1162.57 0.153885V122.021L1155.51 131.658H1113.24L1106.16 122.021V0.153885H1068.63V131.673L1101.52 169.229H1167.23L1200.07 131.62V0.153885H1162.57Z" fill="#004100"/>
<path d="M700.964 0.223251H674.815V0.229248L677.894 0.223251L645.054 65.1653L612.355 0.154251H551.11V169.229H588.621V30.4483L615.969 87.1592L635.643 122.263H654.434L672.712 87.1592L701.464 30.4362V169.229H738.913V0.223251H708.901H700.964Z" fill="#004100"/>
<path d="M965.623 101.726L980.514 43.8452L995.404 101.726H965.623ZM1006.48 0.154251H954.475L902.985 169.229H945.285L959.36 125.103H1001.66L1015.74 169.229H1058.04L1006.48 0.154251Z" fill="#004100"/>
<path d="M328.742 37.7225H361L376.025 56.5065L369.809 66.0945H328.742V37.7225ZM411.69 37.7225L384.994 0.153519H291.183V169.229H328.742V89.5065H357.374L375.707 104.09V169.229H413.279V104.09L385.418 82.3025L411.69 37.7225Z" fill="#004100"/>
<path d="M94.0225 131.81H37.6645V89.3471H80.8605L94.0225 98.7841V131.81ZM75.3775 37.7221L85.0515 56.5061L77.6375 66.0941H37.7685V37.7221H75.3775ZM120.717 37.7221L94.0225 0.154114H0.0745087V169.229H96.3535L131.577 139.104V98.9701L94.4445 75.0991L120.717 37.7221Z" fill="#004100"/>
<path d="M858.001 131.81H801.643V89.3471H844.838L858.001 98.7841V131.81ZM839.356 37.7221L849.03 56.5061L841.616 66.0941H801.747V37.7221H839.356ZM884.695 37.7221L858.001 0.154114H764.053V169.229H860.332L895.555 139.104V98.9701L858.423 75.0991L884.695 37.7221Z" fill="#004100"/>
</svg>
