<?xml version="1.0" encoding="UTF-8" standalone="no"?>
<!-- Created with Inkscape (http://www.inkscape.org/) -->

<svg
   version="1.1"
   id="svg1"
   width="666.66669"
   height="666.66669"
   viewBox="0 0 666.66669 666.66669"
   sodipodi:docname="ICONS_RGB_VINIL.eps"
   xmlns:inkscape="http://www.inkscape.org/namespaces/inkscape"
   xmlns:sodipodi="http://sodipodi.sourceforge.net/DTD/sodipodi-0.dtd"
   xmlns="http://www.w3.org/2000/svg"
   xmlns:svg="http://www.w3.org/2000/svg">
  <defs
     id="defs1" />
  <sodipodi:namedview
     id="namedview1"
     pagecolor="#ffffff"
     bordercolor="#000000"
     borderopacity="0.25"
     inkscape:showpageshadow="2"
     inkscape:pageopacity="0.0"
     inkscape:pagecheckerboard="0"
     inkscape:deskcolor="#d1d1d1">
    <inkscape:page
       x="0"
       y="0"
       inkscape:label="1"
       id="page1"
       width="666.66669"
       height="666.66669"
       margin="0"
       bleed="0" />
  </sodipodi:namedview>
  <g
     id="g1"
     inkscape:groupmode="layer"
     inkscape:label="1">
    <g
       id="group-R5">
      <path
         id="path2"
         d="m 3175.56,1127.74 c -175.22,-97.66 -386.79,-147.271 -608.97,-147.271 -163.53,0 -332.77,26.861 -497.56,81.191 -435.85,143.68 -779.74,452.08 -968.34,868.4 -189.499,418.3 -183.104,865.61 17.98,1259.53 214.59,420.39 629.19,721.04 1137.5,824.84 463.6,94.73 860.83,-119.57 1112.47,-315.99 271.56,-211.96 436.61,-449.61 438.23,-451.98 l 0.75,-1.18 c 254,-436.91 334.68,-833.72 239.81,-1179.38 -98.59,-359.21 -383.78,-666.1 -871.87,-938.16 z m -692.75,3197.17 c 0,0 -1396.04,-132.16 -1730.83,-1188.07 C 365.859,1919.07 1088.59,780.512 2276.66,681.5 c 1188.07,-99 2075.88,871.25 2075.88,1722.7 0,851.45 -228,1950.41 -1869.73,1920.71"
         style="fill:#203c1b;fill-opacity:1;fill-rule:nonzero;stroke:none"
         transform="matrix(0.13333333,0,0,-0.13333333,0,666.66667)" />
      <path
         id="path3"
         d="m 3585.68,2348.48 -0.12,-1.38 c -48.2,-364.65 -178.49,-629.18 -387.3,-786.25 -157.68,-118.64 -359.77,-177.4 -612.74,-177.4 -95.09,0 -197.35,8.3 -307.2,24.83 -250.98,37.8 -500.49,207.84 -667.44,454.84 -187.12,276.87 -247.91,607.7 -171.19,931.54 77.12,325.48 280.08,580.46 571.49,717.94 310.92,146.66 683.62,135.31 1022.64,-31.21 591.3,-290.4 552.34,-1124.53 551.86,-1132.91 z m 408.36,-267.82 c 91.04,331.66 12.66,714.16 -232.94,1136.88 -16.89,24.09 -544.72,765.47 -1276.88,765.47 -70.84,0 -143.52,-6.92 -217.9,-22.11 -491.39,-100.35 -891.93,-390.49 -1098.92,-795.99 -193.576,-379.22 -199.63,-810.04 -17.03,-1213.1 182.13,-402.03 514.22,-699.84 935.13,-838.61 374.66,-123.52 772.56,-100.14 1064.36,62.52 473.35,263.86 749.48,559.86 844.18,904.94"
         style="fill:#203c1b;fill-opacity:1;fill-rule:nonzero;stroke:none"
         transform="matrix(0.13333333,0,0,-0.13333333,0,666.66667)" />
      <path
         id="path4"
         d="m 3005.76,2430.16 -0.12,-1.33 c -22.38,-169.35 -83.2,-292.42 -180.75,-365.82 -73.79,-55.5 -168.05,-83.01 -285.83,-83.01 -43.98,0 -91.21,3.83 -141.89,11.46 -117.34,17.69 -233.82,96.95 -311.59,212.05 -87.07,128.8 -115.34,282.71 -79.64,433.38 35.92,151.67 130.56,270.51 266.44,334.62 144.75,68.32 318.19,63.1 475.8,-14.33 114.6,-56.29 195.49,-165.58 233.92,-316.05 28.7,-112.39 23.88,-207 23.66,-210.97 z m -3.82,989.67 c -170.58,83.77 -350.13,125.89 -524.84,125.89 -152.01,0 -300.34,-31.87 -436.05,-95.89 -272.63,-128.61 -462.58,-367.38 -534.83,-672.3 -72.08,-304.28 -14.95,-615.12 160.89,-875.27 156.44,-231.46 389.39,-390.65 623.16,-425.85 379.98,-57.27 663.03,-11.04 865.44,141.21 194.47,146.3 316.15,394.59 361.65,738.02 1.2,26.12 30.15,796.22 -515.42,1064.19"
         style="fill:#203c1b;fill-opacity:1;fill-rule:nonzero;stroke:none"
         transform="matrix(0.13333333,0,0,-0.13333333,0,666.66667)" />
      <path
         id="path5"
         d="m 2728.8,2918.5 c -77.86,38.24 -159.78,57.47 -239.46,57.47 -69.19,0 -136.68,-14.49 -198.39,-43.61 -123.91,-58.47 -210.23,-167.03 -243.11,-305.73 -32.83,-138.63 -6.79,-280.25 73.31,-398.79 71.17,-105.3 176.93,-177.7 282.91,-193.66 173.72,-26.16 302.77,-5.28 394.6,63.79 88.11,66.28 143.34,179.27 164.16,335.86 0.7,16.68 11.8,363.93 -234.02,484.67"
         style="fill:#203c1b;fill-opacity:1;fill-rule:nonzero;stroke:none"
         transform="matrix(0.13333333,0,0,-0.13333333,0,666.66667)" />
    </g>
  </g>
</svg>
