<svg width="667" height="667" viewBox="0 0 667 667" fill="none" xmlns="http://www.w3.org/2000/svg">
<path d="M480.699 297.173C480.699 297.173 395.071 140.044 311.188 140.044C233.844 140.044 111.325 140.044 111.325 140.044C111.325 151.44 132.802 188.879 196.355 198.521C310.335 215.815 335.404 290.6 335.404 290.6L88.9349 215.651L198.071 333.333L88.9349 451.016L335.404 376.067C335.404 376.067 310.335 450.852 196.355 468.147C132.802 477.788 111.325 515.227 111.325 526.623C111.325 526.623 233.844 526.623 311.188 526.623C391.565 526.623 480.699 369.493 480.699 369.493L577.732 333.333L480.699 297.173Z" fill="#FAAA00"/>
</svg>
