<svg width="438" height="380" viewBox="0 0 438 380" fill="none" xmlns="http://www.w3.org/2000/svg">
<path d="M434.882 353.138H285.259C285.922 352.898 286.578 352.656 287.163 352.394C313.046 340.843 353.163 303.315 360.928 263.198C367.399 229.76 280.378 61.4775 251.215 6.35753C246.987 -1.63314 235.78 -2.21046 230.754 5.30154C203.384 46.2069 134.058 152.371 121.592 196.419C106.243 250.663 113.512 324.01 158.124 351.102C159.58 351.986 161.234 352.496 162.928 352.678C164.06 352.798 165.578 352.956 167.362 353.138H2.88642C0.834282 353.138 -0.561581 355.22 0.220286 357.118L6.91348 373.374C7.35455 374.443 8.38841 375.146 9.54415 375.159L414.322 379.978C420.508 380.052 426.251 376.777 429.34 371.416L437.38 357.459C438.486 355.536 437.099 353.138 434.882 353.138Z" fill="#203C1B"/>
</svg>
