<svg width="667" height="667" viewBox="0 0 667 667" fill="none" xmlns="http://www.w3.org/2000/svg">
<path d="M146.489 338.3C174 337.688 239.457 316.521 237.039 392.28C236.713 402.341 232.677 411.796 227.649 419.549C212.24 443.3 178.596 480.664 178.596 480.664L194.232 498.812C194.232 498.812 212.975 473.531 222.9 467.14C249.348 450.109 283.955 428.771 299.055 469.048C303.733 481.536 303.225 515.892 305.432 529.053C307.772 543.025 306.287 571.31 306.287 571.31L333.337 574.298C333.337 574.298 338.144 536.712 340.432 524.211C343.437 507.801 354.571 472.573 367.848 463.023C415.691 428.605 447.696 493.897 483.048 512.647C490.099 516.384 495.769 519.987 502.893 513.493C520.423 500.135 487.54 479.565 480.509 470.913C457.991 443.207 432.24 367.023 483.464 356.783C494.817 354.513 535.065 364.799 543.424 366.923C563.805 372.099 560.247 369.187 567.069 356.165C575.977 340.771 554.796 338.604 543.948 334.984C507.644 322.869 436.013 324.736 462.752 267.956C467.38 258.131 505.563 207.743 514.98 195.325C518.299 190.951 524.043 188.685 528.316 185.093C532.589 181.501 517.888 169.279 511.333 172.315C488.717 182.789 471.969 205.505 446.423 215.349C388.587 237.633 373.444 207.599 372.124 152.339C371.825 139.808 375.712 106.153 375.712 106.153C375.712 106.153 346.073 84.7 344.359 95.32C335.964 124.072 334.228 200.217 315.511 221.452C294.557 245.227 257.312 225.461 236.808 211.109C229.025 205.663 192.572 170.595 192.572 170.595L173.495 183.76C173.495 183.76 187.995 210.093 195.185 220.499C203.392 232.372 235.163 263.992 232.469 275.673C228.359 293.519 184.123 304.829 167.576 306.265C159.519 306.965 146.716 305.561 110.47 304.205C105.172 304.007 97.4636 332.693 97.4636 332.693C97.4636 332.693 134.388 338.569 146.489 338.3Z" fill="#FAAA00"/>
</svg>
